# xmcd CD database file
#
# Track frame offsets:
#	150
#	11893
#	24931
#	37142
#	49657
#	64748
#	71346
#	81159
#	93230
#	103993
#	125974
#	332550
#
# Disc length: 4440 seconds
#
# Revision: 0
# Processed by: cddbd v1.5PL3 Copyright (c) Steve Scherf et al.
# Submitted via: CDex 1.51
#
DISCID=a511560c
DTITLE=HEAVY HITTER Final - サヨナラどパンク甲子園
DYEAR=2004
DGENRE=Punk
TTITLE0=サザエさん
TTITLE1=CHA-LA HEAD-CHA-LA
TTITLE2=燃えてヒーロー
TTITLE3=夢を信じて
TTITLE4=残酷な天使のテーゼ
TTITLE5=キン肉マン Go Fight!
TTITLE6=ムーンライト伝説
TTITLE7=贈る言葉
TTITLE8=仰げば尊し
TTITLE9=今日の日はさようなら
TTITLE10=データ
TTITLE11=データ
EXTD=YEAR: 2004
EXTT0=
EXTT1=
EXTT2=
EXTT3=
EXTT4=
EXTT5=
EXTT6=
EXTT7=
EXTT8=
EXTT9=
EXTT10=
EXTT11=
PLAYORDER=
